<svg width="183" height="46" viewBox="0 0 183 46" fill="none" xmlns="http://www.w3.org/2000/svg">
<path d="M19.496 34H7.88V30.208H12.008V4.192H4.472V7.792H0.68V0.399998H27.224V7.792H23.432V4.192H15.992V30.208H19.496V34ZM46.0422 34H35.3862V30.208H38.7462V19.792H35.3862V16H42.7302V30.208H46.0422V34ZM43.2582 9.04C43.2582 9.776 43.0022 10.384 42.4902 10.864C41.9782 11.312 41.4182 11.536 40.8102 11.536C40.1702 11.536 39.5942 11.312 39.0822 10.864C38.5702 10.384 38.3142 9.776 38.3142 9.04C38.3142 8.304 38.5702 7.696 39.0822 7.216C39.5942 6.736 40.1702 6.496 40.8102 6.496C41.4182 6.496 41.9782 6.736 42.4902 7.216C43.0022 7.696 43.2582 8.304 43.2582 9.04ZM54.6819 46V42.208H57.8979V19.792H54.2019V16H61.2099C61.2419 16.416 61.2739 16.816 61.3059 17.2C61.3379 17.552 61.3699 17.904 61.4019 18.256C61.7219 17.808 62.3939 17.248 63.4179 16.576C64.4419 15.904 65.8019 15.568 67.4979 15.568C68.8419 15.568 70.1059 15.824 71.2899 16.336C72.4739 16.816 73.4979 17.488 74.3619 18.352C75.2259 19.216 75.8979 20.224 76.3779 21.376C76.8899 22.496 77.1459 23.696 77.1459 24.976C77.1459 26.256 76.8899 27.472 76.3779 28.624C75.8979 29.776 75.2259 30.784 74.3619 31.648C73.4979 32.512 72.4739 33.2 71.2899 33.712C70.1059 34.192 68.8419 34.432 67.4979 34.432C66.6019 34.432 65.8019 34.336 65.0979 34.144C64.3939 33.952 63.7859 33.728 63.2739 33.472C62.7619 33.216 62.4099 33.024 62.2179 32.896C62.0259 32.736 61.8819 32.592 61.7859 32.464C61.8179 32.56 61.8339 32.672 61.8339 32.8C61.8659 32.928 61.8819 33.024 61.8819 33.088V42.208H65.3379V46H54.6819ZM67.4979 19.456C66.6339 19.456 65.8499 19.6 65.1459 19.888C64.4419 20.176 63.8499 20.576 63.3699 21.088C62.8899 21.568 62.5219 22.144 62.2659 22.816C62.0099 23.488 61.8819 24.208 61.8819 24.976C61.8819 25.808 62.0259 26.592 62.3139 27.328C62.6339 28.032 63.0819 28.64 63.6579 29.152C64.1379 29.568 64.6979 29.904 65.3379 30.16C66.0099 30.416 66.7299 30.544 67.4979 30.544C68.2659 30.544 68.9699 30.432 69.6099 30.208C70.2499 29.952 70.8099 29.616 71.2899 29.2C71.8659 28.72 72.3139 28.112 72.6339 27.376C72.9539 26.64 73.1139 25.84 73.1139 24.976C73.1139 24.08 72.9379 23.28 72.5859 22.576C72.2659 21.84 71.8179 21.216 71.2419 20.704C70.7619 20.32 70.2019 20.016 69.5619 19.792C68.9219 19.568 68.2339 19.456 67.4979 19.456ZM85.7788 46V42.208H88.9948V19.792H85.2988V16H92.3068C92.3388 16.416 92.3708 16.816 92.4028 17.2C92.4348 17.552 92.4668 17.904 92.4988 18.256C92.8188 17.808 93.4908 17.248 94.5148 16.576C95.5388 15.904 96.8988 15.568 98.5948 15.568C99.9388 15.568 101.203 15.824 102.387 16.336C103.571 16.816 104.595 17.488 105.459 18.352C106.323 19.216 106.995 20.224 107.475 21.376C107.987 22.496 108.243 23.696 108.243 24.976C108.243 26.256 107.987 27.472 107.475 28.624C106.995 29.776 106.323 30.784 105.459 31.648C104.595 32.512 103.571 33.2 102.387 33.712C101.203 34.192 99.9388 34.432 98.5948 34.432C97.6988 34.432 96.8988 34.336 96.1948 34.144C95.4908 33.952 94.8828 33.728 94.3708 33.472C93.8588 33.216 93.5068 33.024 93.3148 32.896C93.1228 32.736 92.9788 32.592 92.8828 32.464C92.9148 32.56 92.9308 32.672 92.9308 32.8C92.9628 32.928 92.9788 33.024 92.9788 33.088V42.208H96.4348V46H85.7788ZM98.5948 19.456C97.7308 19.456 96.9468 19.6 96.2428 19.888C95.5388 20.176 94.9468 20.576 94.4668 21.088C93.9868 21.568 93.6188 22.144 93.3628 22.816C93.1068 23.488 92.9788 24.208 92.9788 24.976C92.9788 25.808 93.1228 26.592 93.4108 27.328C93.7308 28.032 94.1788 28.64 94.7548 29.152C95.2348 29.568 95.7948 29.904 96.4348 30.16C97.1068 30.416 97.8268 30.544 98.5948 30.544C99.3628 30.544 100.067 30.432 100.707 30.208C101.347 29.952 101.907 29.616 102.387 29.2C102.963 28.72 103.411 28.112 103.731 27.376C104.051 26.64 104.211 25.84 104.211 24.976C104.211 24.08 104.035 23.28 103.683 22.576C103.363 21.84 102.915 21.216 102.339 20.704C101.859 20.32 101.299 20.016 100.659 19.792C100.019 19.568 99.3308 19.456 98.5948 19.456ZM127.052 34H116.396V30.208H119.756V19.792H116.396V16H123.74V30.208H127.052V34ZM124.268 9.04C124.268 9.776 124.012 10.384 123.5 10.864C122.988 11.312 122.428 11.536 121.82 11.536C121.18 11.536 120.604 11.312 120.092 10.864C119.58 10.384 119.324 9.776 119.324 9.04C119.324 8.304 119.58 7.696 120.092 7.216C120.604 6.736 121.18 6.496 121.82 6.496C122.428 6.496 122.988 6.736 123.5 7.216C124.012 7.696 124.268 8.304 124.268 9.04ZM146.827 34H139.243V19.888H135.211V16H139.243V4.288H143.227V16H147.931V19.888H143.227V30.208H146.827V34ZM169.481 46H158.825V42.208H163.145C163.817 40.832 164.489 39.456 165.161 38.08C165.865 36.704 166.569 35.344 167.273 34C166.057 31.6 164.857 29.232 163.673 26.896C162.521 24.56 161.337 22.192 160.121 19.792H156.089V16H166.745V19.792H164.201C165.129 21.552 166.057 23.328 166.985 25.12C167.913 26.88 168.681 28.656 169.289 30.448C169.897 28.656 170.649 26.88 171.545 25.12C172.473 23.328 173.401 21.552 174.329 19.792H171.353V16H182.345V19.792H178.409C176.521 23.568 174.633 27.312 172.745 31.024C170.889 34.704 169.017 38.432 167.129 42.208H169.481V46Z" fill="#6D3AAE"/>
</svg>
